<mxfile host="app.diagrams.net" agent="Mozilla/5.0 (Windows NT 10.0; Win64; x64; rv:136.0) Gecko/20100101 Firefox/136.0" version="26.1.3">
  <diagram name="AI Companion Agent Architecture" id="RdI179T0ozSd4f0f8F4P">
    <mxGraphModel dx="1488" dy="587" grid="1" gridSize="10" guides="1" tooltips="1" connect="1" arrows="1" fold="1" page="1" pageScale="1" pageWidth="850" pageHeight="1100" math="0" shadow="0">
      <root>
        <mxCell id="0" />
        <mxCell id="1" parent="0" />
        <mxCell id="oFv84axhfdlp8eAZ_Fto-1" value="AI Companion Agent Architecture" style="rounded=1;whiteSpace=wrap;html=1;fillColor=#8CCDF5;strokeColor=#1B78C8;fontSize=14;fontColor=#000000;" vertex="1" parent="1">
          <mxGeometry x="610" y="180" width="300" height="60" as="geometry" />
        </mxCell>
        <mxCell id="oFv84axhfdlp8eAZ_Fto-2" value="User Interfaces" style="rounded=1;whiteSpace=wrap;html=1;fillColor=#DAE8FC;strokeColor=#6C8EBF;fontSize=12;" vertex="1" parent="1">
          <mxGeometry x="520" y="30" width="240" height="40" as="geometry" />
        </mxCell>
        <mxCell id="oFv84axhfdlp8eAZ_Fto-3" value="Web (Streamlit Prototype)" style="rounded=1;whiteSpace=wrap;html=1;fillColor=#FFFFFF;strokeColor=#6C8EBF;fontSize=11;" vertex="1" parent="1">
          <mxGeometry x="470" y="100" width="200" height="30" as="geometry" />
        </mxCell>
        <mxCell id="oFv84axhfdlp8eAZ_Fto-4" value="Mobile (React Native App)" style="rounded=1;whiteSpace=wrap;html=1;fillColor=#FFFFFF;strokeColor=#6C8EBF;fontSize=11;" vertex="1" parent="1">
          <mxGeometry x="690" y="100" width="200" height="30" as="geometry" />
        </mxCell>
        <mxCell id="oFv84axhfdlp8eAZ_Fto-5" value="Backend REST API &amp; Core Services" style="rounded=1;whiteSpace=wrap;html=1;fillColor=#FFE6CC;strokeColor=#D79B00;fontSize=12;" vertex="1" parent="1">
          <mxGeometry x="50" y="190" width="260" height="40" as="geometry" />
        </mxCell>
        <mxCell id="oFv84axhfdlp8eAZ_Fto-6" value="API Gateway (FastAPI/Flask)" style="rounded=1;whiteSpace=wrap;html=1;fillColor=#FFFFFF;strokeColor=#D79B00;fontSize=11;" vertex="1" parent="1">
          <mxGeometry x="310" y="290" width="220" height="30" as="geometry" />
        </mxCell>
        <mxCell id="oFv84axhfdlp8eAZ_Fto-7" value="Multi-LLM Orchestration (GPT, Gemini, Claude)" style="rounded=1;whiteSpace=wrap;html=1;fillColor=#FFFFFF;strokeColor=#D79B00;fontSize=11;" vertex="1" parent="1">
          <mxGeometry x="310" y="330" width="220" height="30" as="geometry" />
        </mxCell>
        <mxCell id="oFv84axhfdlp8eAZ_Fto-8" value="Task Scheduler (Celery)" style="rounded=1;whiteSpace=wrap;html=1;fillColor=#FFFFFF;strokeColor=#D79B00;fontSize=11;" vertex="1" parent="1">
          <mxGeometry x="310" y="370" width="220" height="30" as="geometry" />
        </mxCell>
        <mxCell id="oFv84axhfdlp8eAZ_Fto-9" value="Voice Processing (Speech-to-Text &amp; TTS)" style="rounded=1;whiteSpace=wrap;html=1;fillColor=#FFFFFF;strokeColor=#D79B00;fontSize=11;" vertex="1" parent="1">
          <mxGeometry x="310" y="410" width="220" height="30" as="geometry" />
        </mxCell>
        <mxCell id="oFv84axhfdlp8eAZ_Fto-10" value="Databases &amp; Storage" style="rounded=1;whiteSpace=wrap;html=1;fillColor=#E1D5E7;strokeColor=#9673A6;fontSize=12;" vertex="1" parent="1">
          <mxGeometry x="830" y="295" width="240" height="40" as="geometry" />
        </mxCell>
        <mxCell id="oFv84axhfdlp8eAZ_Fto-11" value="MongoDB (Conversation Store)" style="rounded=1;whiteSpace=wrap;html=1;fillColor=#FFFFFF;strokeColor=#9673A6;fontSize=11;" vertex="1" parent="1">
          <mxGeometry x="1120" y="350" width="200" height="30" as="geometry" />
        </mxCell>
        <mxCell id="oFv84axhfdlp8eAZ_Fto-12" value="Pinecone (Vector DB)" style="rounded=1;whiteSpace=wrap;html=1;fillColor=#FFFFFF;strokeColor=#9673A6;fontSize=11;" vertex="1" parent="1">
          <mxGeometry x="1120" y="390" width="200" height="30" as="geometry" />
        </mxCell>
        <mxCell id="oFv84axhfdlp8eAZ_Fto-13" value="Optional Graph DB (Neo4j)" style="rounded=1;whiteSpace=wrap;html=1;fillColor=#FFFFFF;strokeColor=#9673A6;fontSize=11;" vertex="1" parent="1">
          <mxGeometry x="1120" y="430" width="200" height="30" as="geometry" />
        </mxCell>
        <mxCell id="oFv84axhfdlp8eAZ_Fto-14" value="External Integrations" style="rounded=1;whiteSpace=wrap;html=1;fillColor=#D5E8D4;strokeColor=#82B366;fontSize=12;" vertex="1" parent="1">
          <mxGeometry x="60" y="550" width="260" height="40" as="geometry" />
        </mxCell>
        <mxCell id="oFv84axhfdlp8eAZ_Fto-15" value="Social Media APIs (YouTube, Twitter/X, Telegram, Reddit)" style="rounded=1;whiteSpace=wrap;html=1;fillColor=#FFFFFF;strokeColor=#82B366;fontSize=11;" vertex="1" parent="1">
          <mxGeometry x="380" y="610" width="220" height="30" as="geometry" />
        </mxCell>
        <mxCell id="oFv84axhfdlp8eAZ_Fto-16" value="Location Services (Google Maps API)" style="rounded=1;whiteSpace=wrap;html=1;fillColor=#FFFFFF;strokeColor=#82B366;fontSize=11;" vertex="1" parent="1">
          <mxGeometry x="380" y="650" width="220" height="30" as="geometry" />
        </mxCell>
        <mxCell id="oFv84axhfdlp8eAZ_Fto-17" value="Booking Services (Booking.com, Yatra, MakeMyTrip)" style="rounded=1;whiteSpace=wrap;html=1;fillColor=#FFFFFF;strokeColor=#82B366;fontSize=11;" vertex="1" parent="1">
          <mxGeometry x="380" y="690" width="220" height="30" as="geometry" />
        </mxCell>
        <mxCell id="oFv84axhfdlp8eAZ_Fto-18" value="Payment Gateways (Google Pay, etc.)" style="rounded=1;whiteSpace=wrap;html=1;fillColor=#FFFFFF;strokeColor=#82B366;fontSize=11;" vertex="1" parent="1">
          <mxGeometry x="380" y="730" width="220" height="30" as="geometry" />
        </mxCell>
        <mxCell id="oFv84axhfdlp8eAZ_Fto-19" value="Infrastructure &amp; DevOps" style="rounded=1;whiteSpace=wrap;html=1;fillColor=#F8CECC;strokeColor=#B85450;fontSize=12;" vertex="1" parent="1">
          <mxGeometry x="690" y="470" width="240" height="40" as="geometry" />
        </mxCell>
        <mxCell id="oFv84axhfdlp8eAZ_Fto-20" value="Containerization (Docker/Kubernetes)" style="rounded=1;whiteSpace=wrap;html=1;fillColor=#FFFFFF;strokeColor=#B85450;fontSize=11;" vertex="1" parent="1">
          <mxGeometry x="970" y="570" width="200" height="30" as="geometry" />
        </mxCell>
        <mxCell id="oFv84axhfdlp8eAZ_Fto-21" value="CI/CD &amp; Version Control (VS Code, Git)" style="rounded=1;whiteSpace=wrap;html=1;fillColor=#FFFFFF;strokeColor=#B85450;fontSize=11;" vertex="1" parent="1">
          <mxGeometry x="970" y="610" width="200" height="30" as="geometry" />
        </mxCell>
        <mxCell id="oFv84axhfdlp8eAZ_Fto-22" value="Cloud Hosting (AWS, GCP, Azure)" style="rounded=1;whiteSpace=wrap;html=1;fillColor=#FFFFFF;strokeColor=#B85450;fontSize=11;" vertex="1" parent="1">
          <mxGeometry x="970" y="650" width="200" height="30" as="geometry" />
        </mxCell>
        <mxCell id="oFv84axhfdlp8eAZ_Fto-23" style="edgeStyle=elbowEdgeStyle;rounded=0;html=1;strokeColor=#000000;" edge="1" parent="1" source="oFv84axhfdlp8eAZ_Fto-1" target="oFv84axhfdlp8eAZ_Fto-2">
          <mxGeometry relative="1" as="geometry" />
        </mxCell>
        <mxCell id="oFv84axhfdlp8eAZ_Fto-24" style="edgeStyle=elbowEdgeStyle;rounded=0;html=1;strokeColor=#000000;" edge="1" parent="1" source="oFv84axhfdlp8eAZ_Fto-1" target="oFv84axhfdlp8eAZ_Fto-5">
          <mxGeometry relative="1" as="geometry" />
        </mxCell>
        <mxCell id="oFv84axhfdlp8eAZ_Fto-25" style="edgeStyle=elbowEdgeStyle;rounded=0;html=1;strokeColor=#000000;" edge="1" parent="1" source="oFv84axhfdlp8eAZ_Fto-1" target="oFv84axhfdlp8eAZ_Fto-10">
          <mxGeometry relative="1" as="geometry" />
        </mxCell>
        <mxCell id="oFv84axhfdlp8eAZ_Fto-26" style="edgeStyle=elbowEdgeStyle;rounded=0;html=1;strokeColor=#000000;" edge="1" parent="1" source="oFv84axhfdlp8eAZ_Fto-1" target="oFv84axhfdlp8eAZ_Fto-14">
          <mxGeometry relative="1" as="geometry" />
        </mxCell>
        <mxCell id="oFv84axhfdlp8eAZ_Fto-27" style="edgeStyle=elbowEdgeStyle;rounded=0;html=1;strokeColor=#000000;" edge="1" parent="1" source="oFv84axhfdlp8eAZ_Fto-1" target="oFv84axhfdlp8eAZ_Fto-19">
          <mxGeometry relative="1" as="geometry" />
        </mxCell>
        <mxCell id="oFv84axhfdlp8eAZ_Fto-28" style="edgeStyle=elbowEdgeStyle;rounded=0;html=1;strokeColor=#000000;" edge="1" parent="1" source="oFv84axhfdlp8eAZ_Fto-2" target="oFv84axhfdlp8eAZ_Fto-3">
          <mxGeometry relative="1" as="geometry" />
        </mxCell>
        <mxCell id="oFv84axhfdlp8eAZ_Fto-29" style="edgeStyle=elbowEdgeStyle;rounded=0;html=1;strokeColor=#000000;" edge="1" parent="1" source="oFv84axhfdlp8eAZ_Fto-2" target="oFv84axhfdlp8eAZ_Fto-4">
          <mxGeometry relative="1" as="geometry" />
        </mxCell>
        <mxCell id="oFv84axhfdlp8eAZ_Fto-30" style="edgeStyle=elbowEdgeStyle;rounded=0;html=1;strokeColor=#000000;" edge="1" parent="1" source="oFv84axhfdlp8eAZ_Fto-5" target="oFv84axhfdlp8eAZ_Fto-6">
          <mxGeometry relative="1" as="geometry" />
        </mxCell>
        <mxCell id="oFv84axhfdlp8eAZ_Fto-31" style="edgeStyle=elbowEdgeStyle;rounded=0;html=1;strokeColor=#000000;" edge="1" parent="1" source="oFv84axhfdlp8eAZ_Fto-5" target="oFv84axhfdlp8eAZ_Fto-7">
          <mxGeometry relative="1" as="geometry" />
        </mxCell>
        <mxCell id="oFv84axhfdlp8eAZ_Fto-32" style="edgeStyle=elbowEdgeStyle;rounded=0;html=1;strokeColor=#000000;" edge="1" parent="1" source="oFv84axhfdlp8eAZ_Fto-5" target="oFv84axhfdlp8eAZ_Fto-8">
          <mxGeometry relative="1" as="geometry" />
        </mxCell>
        <mxCell id="oFv84axhfdlp8eAZ_Fto-33" style="edgeStyle=elbowEdgeStyle;rounded=0;html=1;strokeColor=#000000;" edge="1" parent="1" source="oFv84axhfdlp8eAZ_Fto-5" target="oFv84axhfdlp8eAZ_Fto-9">
          <mxGeometry relative="1" as="geometry" />
        </mxCell>
        <mxCell id="oFv84axhfdlp8eAZ_Fto-34" style="edgeStyle=elbowEdgeStyle;rounded=0;html=1;strokeColor=#000000;" edge="1" parent="1" source="oFv84axhfdlp8eAZ_Fto-10" target="oFv84axhfdlp8eAZ_Fto-11">
          <mxGeometry relative="1" as="geometry" />
        </mxCell>
        <mxCell id="oFv84axhfdlp8eAZ_Fto-35" style="edgeStyle=elbowEdgeStyle;rounded=0;html=1;strokeColor=#000000;" edge="1" parent="1" source="oFv84axhfdlp8eAZ_Fto-10" target="oFv84axhfdlp8eAZ_Fto-12">
          <mxGeometry relative="1" as="geometry" />
        </mxCell>
        <mxCell id="oFv84axhfdlp8eAZ_Fto-36" style="edgeStyle=elbowEdgeStyle;rounded=0;html=1;strokeColor=#000000;" edge="1" parent="1" source="oFv84axhfdlp8eAZ_Fto-10" target="oFv84axhfdlp8eAZ_Fto-13">
          <mxGeometry relative="1" as="geometry" />
        </mxCell>
        <mxCell id="oFv84axhfdlp8eAZ_Fto-37" style="edgeStyle=elbowEdgeStyle;rounded=0;html=1;strokeColor=#000000;" edge="1" parent="1" source="oFv84axhfdlp8eAZ_Fto-14" target="oFv84axhfdlp8eAZ_Fto-15">
          <mxGeometry relative="1" as="geometry" />
        </mxCell>
        <mxCell id="oFv84axhfdlp8eAZ_Fto-38" style="edgeStyle=elbowEdgeStyle;rounded=0;html=1;strokeColor=#000000;" edge="1" parent="1" source="oFv84axhfdlp8eAZ_Fto-14" target="oFv84axhfdlp8eAZ_Fto-16">
          <mxGeometry relative="1" as="geometry" />
        </mxCell>
        <mxCell id="oFv84axhfdlp8eAZ_Fto-39" style="edgeStyle=elbowEdgeStyle;rounded=0;html=1;strokeColor=#000000;" edge="1" parent="1" source="oFv84axhfdlp8eAZ_Fto-14" target="oFv84axhfdlp8eAZ_Fto-17">
          <mxGeometry relative="1" as="geometry" />
        </mxCell>
        <mxCell id="oFv84axhfdlp8eAZ_Fto-40" style="edgeStyle=elbowEdgeStyle;rounded=0;html=1;strokeColor=#000000;" edge="1" parent="1" source="oFv84axhfdlp8eAZ_Fto-14" target="oFv84axhfdlp8eAZ_Fto-18">
          <mxGeometry relative="1" as="geometry" />
        </mxCell>
        <mxCell id="oFv84axhfdlp8eAZ_Fto-41" style="edgeStyle=elbowEdgeStyle;rounded=0;html=1;strokeColor=#000000;" edge="1" parent="1" source="oFv84axhfdlp8eAZ_Fto-19" target="oFv84axhfdlp8eAZ_Fto-20">
          <mxGeometry relative="1" as="geometry" />
        </mxCell>
        <mxCell id="oFv84axhfdlp8eAZ_Fto-42" style="edgeStyle=elbowEdgeStyle;rounded=0;html=1;strokeColor=#000000;" edge="1" parent="1" source="oFv84axhfdlp8eAZ_Fto-19" target="oFv84axhfdlp8eAZ_Fto-21">
          <mxGeometry relative="1" as="geometry" />
        </mxCell>
        <mxCell id="oFv84axhfdlp8eAZ_Fto-43" style="edgeStyle=elbowEdgeStyle;rounded=0;html=1;strokeColor=#000000;" edge="1" parent="1" source="oFv84axhfdlp8eAZ_Fto-19" target="oFv84axhfdlp8eAZ_Fto-22">
          <mxGeometry relative="1" as="geometry" />
        </mxCell>
      </root>
    </mxGraphModel>
  </diagram>
</mxfile>
